{
	"asset":{
		"generator":"Khronos glTF Blender I/O v5.0.21",
		"version":"2.0"
	},
	"scene":0,
	"scenes":[
		{
			"name":"upload",
			"nodes":[
				1
			]
		}
	],
	"nodes":[
		{
			"mesh":0,
			"name":"glass",
			"rotation":[
				0,
				-1,
				0,
				3.1391644483846903e-07
			],
			"scale":[
				0.8436246514320374,
				0.8436246514320374,
				0.8436246514320374
			],
			"translation":[
				0.2847956120967865,
				1.1641101837158203,
				0.6835082769393921
			]
		},
		{
			"children":[
				0
			],
			"name":"Sci-fi Droid Robot"
		}
	],
	"materials":[
		{
			"doubleSided":true,
			"name":"Material.013"
		},
		{
			"doubleSided":true,
			"emissiveFactor":[
				1,
				1,
				1
			],
			"emissiveTexture":{
				"index":0
			},
			"name":"drone.001",
			"normalTexture":{
				"index":1
			},
			"pbrMetallicRoughness":{
				"baseColorTexture":{
					"index":2
				},
				"metallicRoughnessTexture":{
					"index":3
				}
			}
		}
	],
	"meshes":[
		{
			"name":"Sphere.003",
			"primitives":[
				{
					"attributes":{
						"POSITION":0,
						"NORMAL":1,
						"TEXCOORD_0":2
					},
					"indices":3,
					"material":0
				},
				{
					"attributes":{
						"POSITION":4,
						"NORMAL":5,
						"TEXCOORD_0":6
					},
					"indices":7,
					"material":1
				}
			]
		}
	],
	"textures":[
		{
			"sampler":0,
			"source":0
		},
		{
			"sampler":0,
			"source":1
		},
		{
			"sampler":0,
			"source":2
		},
		{
			"sampler":0,
			"source":3
		}
	],
	"images":[
		{
			"mimeType":"image/png",
			"name":"scifi droid_drone_Emissive",
			"uri":"scifi%20droid_drone_Emissive.png"
		},
		{
			"mimeType":"image/png",
			"name":"scifi droid_drone_Normal",
			"uri":"scifi%20droid_drone_Normal.png"
		},
		{
			"mimeType":"image/png",
			"name":"scifi droid_drone_BaseColor",
			"uri":"scifi%20droid_drone_BaseColor.png"
		},
		{
			"mimeType":"image/png",
			"name":"scifi droid_drone_Metallic.png-scifi droid_drone_Roughness.png",
			"uri":"scifi%20droid_drone_Metallic.png-scifi%20droid_drone_Roughness.png.png"
		}
	],
	"accessors":[
		{
			"bufferView":0,
			"componentType":5126,
			"count":52,
			"max":[
				0.7943261861801147,
				0.0043832361698150635,
				0.00527074933052063
			],
			"min":[
				-0.10744652152061462,
				-0.566490888595581,
				-0.15209481120109558
			],
			"type":"VEC3"
		},
		{
			"bufferView":1,
			"componentType":5126,
			"count":52,
			"type":"VEC3"
		},
		{
			"bufferView":2,
			"componentType":5126,
			"count":52,
			"type":"VEC2"
		},
		{
			"bufferView":3,
			"componentType":5123,
			"count":186,
			"type":"SCALAR"
		},
		{
			"bufferView":4,
			"componentType":5126,
			"count":26328,
			"max":[
				1.482435703277588,
				0.572640061378479,
				2.132014036178589
			],
			"min":[
				-0.8040110468864441,
				-1.2243235111236572,
				-0.569923460483551
			],
			"type":"VEC3"
		},
		{
			"bufferView":5,
			"componentType":5126,
			"count":26328,
			"type":"VEC3"
		},
		{
			"bufferView":6,
			"componentType":5126,
			"count":26328,
			"type":"VEC2"
		},
		{
			"bufferView":7,
			"componentType":5123,
			"count":80826,
			"type":"SCALAR"
		}
	],
	"bufferViews":[
		{
			"buffer":0,
			"byteLength":624,
			"byteOffset":0,
			"target":34962
		},
		{
			"buffer":0,
			"byteLength":624,
			"byteOffset":624,
			"target":34962
		},
		{
			"buffer":0,
			"byteLength":416,
			"byteOffset":1248,
			"target":34962
		},
		{
			"buffer":0,
			"byteLength":372,
			"byteOffset":1664,
			"target":34963
		},
		{
			"buffer":0,
			"byteLength":315936,
			"byteOffset":2036,
			"target":34962
		},
		{
			"buffer":0,
			"byteLength":315936,
			"byteOffset":317972,
			"target":34962
		},
		{
			"buffer":0,
			"byteLength":210624,
			"byteOffset":633908,
			"target":34962
		},
		{
			"buffer":0,
			"byteLength":161652,
			"byteOffset":844532,
			"target":34963
		}
	],
	"samplers":[
		{
			"magFilter":9729,
			"minFilter":9987
		}
	],
	"buffers":[
		{
			"byteLength":1006184,
			"uri":"whiteRobot.bin"
		}
	]
}
